<svg width="30" height="30" viewBox="0 0 30 30" fill="none" xmlns="http://www.w3.org/2000/svg">
<path d="M22.3334 7.66663H22.3467M8.33335 1.66663H21.6667C25.3486 1.66663 28.3334 4.65139 28.3334 8.33329V21.6666C28.3334 25.3485 25.3486 28.3333 21.6667 28.3333H8.33335C4.65146 28.3333 1.66669 25.3485 1.66669 21.6666V8.33329C1.66669 4.65139 4.65146 1.66663 8.33335 1.66663ZM20.3334 14.16C20.4979 15.2696 20.3084 16.4029 19.7917 17.3986C19.275 18.3944 18.4575 19.2018 17.4555 19.7062C16.4535 20.2105 15.318 20.3861 14.2104 20.2079C13.1029 20.0296 12.0797 19.5067 11.2865 18.7135C10.4932 17.9203 9.97033 16.8971 9.79211 15.7896C9.61389 14.682 9.78944 13.5465 10.2938 12.5445C10.7981 11.5424 11.6056 10.7249 12.6013 10.2083C13.5971 9.69162 14.7304 9.50208 15.84 9.66663C16.9719 9.83447 18.0198 10.3619 18.8289 11.171C19.6381 11.9802 20.1655 13.0281 20.3334 14.16Z" stroke="#E9E6E3" stroke-width="3" stroke-linecap="round" stroke-linejoin="round"/>
</svg>
