<svg width="168" height="52" viewBox="0 0 168 52" fill="none" xmlns="http://www.w3.org/2000/svg">
<path d="M161.011 1.08235C163.86 1.08235 166.213 3.5503 166.213 6.53781V45.5054C166.213 48.4929 163.86 50.9609 161.011 50.9609H6.19274C3.34408 50.9609 0.990838 48.4929 0.990838 45.5054V6.53781C0.990838 3.5503 3.34408 1.08235 6.19274 1.08235H161.011ZM161.011 0.0432129H6.19274C2.7248 0.0432129 0 2.90084 0 6.53781V45.5054C0 49.1424 2.7248 52 6.19274 52H161.011C164.355 52 167.204 49.1424 167.204 45.5054V6.53781C167.204 2.90084 164.479 0.0432129 161.011 0.0432129Z" fill="#E9E6E3"/>
<path d="M84.3451 28.3596C81.3726 28.3596 79.0193 30.6976 79.0193 33.9449C79.0193 37.1922 81.3726 39.5303 84.3451 39.5303C87.3176 39.5303 89.6708 37.1922 89.6708 33.9449C89.6708 30.6976 87.3176 28.3596 84.3451 28.3596ZM84.3451 37.1922C82.735 37.1922 81.3725 35.7634 81.3725 33.815C81.3725 31.8666 82.735 30.4378 84.3451 30.4378C85.9552 30.4378 87.3176 31.7368 87.3176 33.815C87.3176 35.8933 85.9552 37.1922 84.3451 37.1922ZM72.8266 28.3596C69.8541 28.3596 67.5008 30.6976 67.5008 33.9449C67.5008 37.1922 69.8541 39.5303 72.8266 39.5303C75.7991 39.5303 78.1523 37.1922 78.1523 33.9449C78.1523 30.6976 75.7991 28.3596 72.8266 28.3596ZM72.8266 37.1922C71.2165 37.1922 69.8541 35.7634 69.8541 33.815C69.8541 31.8666 71.2165 30.4378 72.8266 30.4378C74.4367 30.4378 75.7991 31.7368 75.7991 33.815C75.7991 35.8933 74.4367 37.1922 72.8266 37.1922ZM59.0787 30.0482V32.3862H64.4045C64.2806 33.6851 63.7852 34.7243 63.1659 35.3737C62.5466 36.0232 61.1842 37.0623 59.0787 37.0623C55.7346 37.0623 53.2575 34.3346 53.2575 30.8275C53.2575 27.3204 55.8585 24.5927 59.0787 24.5927C62.2989 24.5927 62.1751 25.372 63.1659 26.2813L64.776 24.5927C63.4136 23.2938 61.6796 22.2546 59.2026 22.2546C54.7438 22.2546 50.9043 26.1514 50.9043 30.8275C50.9043 35.5036 54.7438 39.4004 59.2026 39.4004C63.6613 39.4004 63.4136 38.621 64.8999 36.9324C66.3861 35.3737 66.8815 33.1656 66.8815 31.477C66.8815 29.7884 66.8815 30.4378 66.8815 30.0482H59.3264H59.0787ZM115.309 31.8666C114.813 30.5677 113.575 28.3596 110.85 28.3596C108.125 28.3596 105.896 30.5677 105.896 33.9449C105.896 37.3221 108.125 39.5303 111.098 39.5303C114.07 39.5303 114.937 37.9716 115.433 37.0623L113.699 35.7634C113.079 36.6727 112.336 37.3221 111.098 37.3221C109.859 37.3221 109.116 36.8025 108.497 35.6335L115.556 32.5161L115.309 31.8666ZM108.125 33.6851C108.125 31.6069 109.735 30.4378 110.85 30.4378C111.965 30.4378 112.584 30.9574 112.832 31.6069L108.125 33.6851ZM102.304 39.0107H104.657V22.7742H102.304V39.0107ZM98.5884 29.5286C98.0929 28.8791 97.1021 28.2297 95.8636 28.2297C93.2626 28.2297 90.7855 30.6976 90.7855 33.815C90.7855 36.9324 93.1388 39.2705 95.8636 39.2705C98.5884 39.2705 98.0929 38.621 98.5884 37.9716V38.7509C98.5884 40.8292 97.4737 41.9982 95.7397 41.9982C94.0057 41.9982 93.3865 40.9591 93.1388 40.0498L91.1571 40.9591C91.7764 42.3879 93.2626 44.2064 95.8636 44.2064C98.4645 44.2064 100.818 42.5178 100.818 38.4911V28.6193H98.5884V29.5286ZM95.8636 37.1922C94.2534 37.1922 92.891 35.7634 92.891 33.815C92.891 31.8666 94.2534 30.4378 95.8636 30.4378C97.4737 30.4378 98.7122 31.8666 98.7122 33.815C98.7122 35.7634 97.4737 37.1922 95.8636 37.1922ZM126.084 22.7742H120.511V39.0107H122.864V32.9058H126.084C128.685 32.9058 131.162 30.9574 131.162 27.84C131.162 24.7226 128.685 22.7742 126.084 22.7742ZM126.208 30.5677H122.864V24.9824H126.208C127.942 24.9824 128.933 26.5411 128.933 27.7101C128.933 28.8791 127.942 30.4378 126.208 30.4378V30.5677ZM140.451 28.2297C138.717 28.2297 136.983 29.009 136.364 30.6976L138.47 31.6069C138.965 30.6976 139.708 30.4378 140.575 30.4378C141.442 30.4378 142.928 31.2172 143.052 32.5161C142.681 32.5161 141.69 31.9965 140.699 31.9965C138.47 31.9965 136.24 33.2955 136.24 35.6335C136.24 37.9716 138.098 39.2705 140.08 39.2705C142.061 39.2705 142.433 38.4911 143.052 37.7118V39.0107H145.282V32.7759C145.282 29.9183 143.176 28.2297 140.575 28.2297H140.451ZM140.204 37.1922C139.46 37.1922 138.346 36.8025 138.346 35.7634C138.346 34.7243 139.708 34.0748 140.823 34.0748C141.938 34.0748 142.309 34.3346 142.928 34.5944C142.805 36.1531 141.566 37.1922 140.204 37.1922ZM153.208 28.6193L150.607 35.6335L147.883 28.6193H145.405L149.493 38.4911L147.139 43.9466H149.493L155.809 28.6193H153.208ZM132.401 39.0107H134.754V22.7742H132.401V39.0107Z" fill="#E9E6E3"/>
<path d="M25.638 25.2423L12.5094 39.9201C12.8809 41.4788 14.2433 42.6478 15.9773 42.6478C17.7113 42.6478 17.2158 42.518 17.8351 42.1283L32.6977 33.1657L25.7618 25.2423H25.638Z" fill="#EA4335"/>
<path d="M39.0142 22.7743L32.5738 18.8775L25.3902 25.6319L32.5738 33.1656L38.8904 29.2689C40.0051 28.6194 40.7482 27.4504 40.7482 26.0216C40.7482 24.5928 40.0051 23.4237 38.8904 22.7743H39.0142Z" fill="#FBBC04"/>
<path d="M12.5094 12.1232C12.5094 12.383 12.5094 12.7726 12.5094 13.0324V39.0108C12.5094 39.4005 12.5094 39.6603 12.5094 39.9201L26.1334 25.6319L12.5094 12.1232Z" fill="#4285F4"/>
<path d="M25.7618 26.0216L32.5738 18.8776L17.7112 9.91501C17.2158 9.52534 16.5965 9.39545 15.8534 9.39545C14.2433 9.39545 12.757 10.5645 12.3855 12.1232L25.6379 26.0216H25.7618Z" fill="#34A853"/>
<path d="M51.6475 8.61611H54.1246C54.7438 8.61611 55.2392 8.61611 55.7347 8.87589C56.2301 9.13568 56.6017 9.39546 56.9732 9.65524C57.3448 10.0449 57.5925 10.4346 57.7163 10.9542C57.8402 11.4737 57.9641 11.9933 57.9641 12.5129C57.9641 13.0324 57.9641 13.6819 57.7163 14.0716C57.5925 14.5911 57.2209 14.9808 56.9732 15.3705C56.6017 15.7602 56.2301 16.02 55.7347 16.1498C55.2392 16.4096 54.7438 16.4096 54.1246 16.4096H51.6475V8.35632V8.61611ZM54.0007 15.3705C54.8677 15.3705 55.487 15.1107 55.9824 14.5911C56.4778 14.0716 56.7255 13.4221 56.7255 12.5129C56.7255 11.6036 56.4778 10.9542 55.9824 10.4346C55.487 9.91503 54.8677 9.65524 54.0007 9.65524H52.7622V15.2406H54.0007V15.3705Z" fill="#E9E6E3"/>
<path d="M60.3173 9.78507V11.9932H63.4137V13.1623H60.3173V15.3704H63.7852V16.5395H59.2026V8.48615H63.7852V9.65517H60.3173V9.78507Z" fill="#E9E6E3"/>
<path d="M67.2532 16.7992C67.0054 16.7992 66.6339 16.7992 66.3862 16.6693C66.1385 16.6693 65.8908 16.4095 65.643 16.2796C65.3953 16.1498 65.1476 15.89 65.0238 15.6302C64.8999 15.3704 64.6522 14.9807 64.6522 14.7209L65.7669 14.2014C65.7669 14.4612 65.7669 14.5911 66.0146 14.8508C66.0146 14.9807 66.2623 15.2405 66.3862 15.3704C66.51 15.5003 66.6339 15.6302 66.8816 15.6302C67.0054 15.6302 67.2532 15.6302 67.5009 15.6302C67.7486 15.6302 67.8724 15.6302 67.9963 15.6302C68.1201 15.6302 68.244 15.6302 68.3678 15.3704C68.3678 15.3704 68.6156 15.1106 68.6156 14.9807C68.6156 14.8508 68.6156 14.7209 68.6156 14.4612C68.6156 14.2014 68.6156 14.2014 68.6156 14.0715C68.6156 13.9416 68.4917 13.8117 68.3678 13.6818C68.3678 13.6818 68.1201 13.422 67.8724 13.422C67.6247 13.422 67.377 13.1622 67.1293 13.1622H66.6339C66.3862 12.9025 66.2623 12.7726 66.0146 12.6427C65.7669 12.6427 65.643 12.3829 65.3953 12.253C65.1476 12.1231 65.0238 11.8633 65.0238 11.6035C65.0238 11.3438 64.8999 11.084 64.8999 10.8242C64.8999 10.5644 64.8999 10.3046 65.0238 10.0448C65.0238 9.78505 65.2715 9.52526 65.5192 9.39537C65.7669 9.13559 66.0146 9.0057 66.2623 8.8758C66.51 8.8758 66.8816 8.74591 67.2532 8.74591C67.6247 8.74591 67.9963 8.74591 68.244 8.8758C68.4917 8.8758 68.7394 9.13559 68.9871 9.26548C69.2348 9.39537 69.3587 9.65516 69.4825 9.78505C69.6064 9.91494 69.7302 10.1747 69.7302 10.3046L68.6156 10.8242C68.6156 10.8242 68.6156 10.5644 68.4917 10.4345C68.4917 10.4345 68.3678 10.1747 68.244 10.1747C68.244 10.1747 67.9963 10.0448 67.8724 9.91494C67.7486 9.91494 67.5009 9.91494 67.377 9.91494C67.2532 9.91494 67.0054 9.91494 66.8816 9.91494C66.7577 9.91494 66.6339 9.91494 66.51 10.1747C66.3862 10.4345 66.2623 10.3046 66.2623 10.4345C66.2623 10.4345 66.2623 10.6943 66.2623 10.8242C66.2623 11.084 66.2623 11.3438 66.6339 11.4736C67.0054 11.6035 67.1293 11.8633 67.6247 11.9932H68.1201C68.3678 12.253 68.7394 12.3829 68.9871 12.5128C69.2348 12.6427 69.4825 12.7726 69.6064 13.0323C69.7303 13.2921 69.978 13.422 69.978 13.6818C69.978 13.9416 70.1018 14.2014 70.1018 14.5911C70.1018 14.9807 70.1018 15.3704 69.8541 15.6302C69.7303 15.89 69.4825 16.1498 69.2348 16.4095C68.9871 16.5394 68.7394 16.7992 68.3678 16.7992C68.1201 16.7992 67.7486 16.9291 67.5009 16.9291L67.2532 16.7992Z" fill="#E9E6E3"/>
<path d="M77.5331 15.3704C77.1615 15.7601 76.7899 16.1498 76.1707 16.4096C75.6753 16.6693 75.056 16.7992 74.4367 16.7992C73.8174 16.7992 73.322 16.7992 72.8266 16.5394C72.3312 16.2797 71.9596 16.0199 71.588 15.6302C71.2165 15.2405 70.9688 14.8509 70.7211 14.3313C70.4734 13.8117 70.4734 13.2921 70.4734 12.6427C70.4734 11.9932 70.4734 11.4737 70.7211 10.9541C70.9688 10.4345 71.2165 10.0448 71.588 9.65517C71.9596 9.2655 72.3312 9.00571 72.8266 8.74593C73.322 8.48614 73.8174 8.48615 74.4367 8.48615C75.056 8.48615 75.5514 8.48615 76.0468 8.87582C76.5422 9.2655 76.9138 9.39539 77.2854 9.78507L76.4184 10.6943C76.1707 10.4345 75.923 10.1747 75.5514 9.91496C75.1798 9.78507 74.8083 9.65517 74.4367 9.65517C74.0651 9.65517 73.6936 9.65517 73.322 9.91496C72.9505 10.0448 72.7027 10.3046 72.455 10.5644C72.2073 10.8242 71.9596 11.084 71.8358 11.4737C71.7119 11.8633 71.588 12.253 71.588 12.7726C71.588 13.2922 71.588 13.6818 71.8358 14.0715C72.0835 14.4612 72.2073 14.721 72.455 14.9807C72.7027 15.2405 72.9505 15.5003 73.322 15.6302C73.6936 15.7601 74.0651 15.89 74.4367 15.89C74.8083 15.89 75.3037 15.89 75.6753 15.6302C76.0468 15.3704 76.2945 15.1106 76.6661 14.8509L77.5331 15.7601V15.3704Z" fill="#E9E6E3"/>
<path d="M80.8772 8.61603H82.2396L85.0882 16.6693H83.7258L82.9827 14.5911H79.8863L79.1432 16.6693H77.7808L80.6295 8.61603H80.8772ZM82.735 13.422L81.9919 11.084L81.7442 10.1747L81.4965 11.084L80.7533 13.422H82.9827H82.735Z" fill="#E9E6E3"/>
<path d="M85.9552 8.61604H88.68C89.0516 8.61604 89.2993 8.61604 89.6709 8.74593C89.9186 8.74593 90.2901 9.00571 90.414 9.2655C90.6617 9.52528 90.7856 9.78507 90.9094 10.0448C91.0333 10.3046 91.1571 10.6943 91.1571 11.084C91.1571 11.4737 91.1571 11.6036 91.0333 11.8633C91.0333 12.1231 90.7856 12.3829 90.6617 12.5128C90.5379 12.7726 90.2901 12.9025 90.1663 13.0324C90.0424 13.1623 89.6709 13.2922 89.547 13.2922L91.6525 16.5395H90.2901L88.3085 13.422H87.4415V16.5395H86.2029V8.48615L85.9552 8.61604ZM88.68 12.253C88.8039 12.253 89.0516 12.253 89.1755 12.253C89.2993 12.253 89.4232 12.1231 89.547 11.9932C89.547 11.9932 89.7947 11.7334 89.7947 11.6036C89.7947 11.4737 89.7947 11.3438 89.7947 11.084C89.7947 10.8242 89.7947 10.8242 89.7947 10.6943C89.7947 10.5644 89.6709 10.4345 89.547 10.3046C89.547 10.3046 89.2993 10.0448 89.1755 10.0448C89.0516 10.0448 88.8039 10.0448 88.68 10.0448H87.1938V12.5128H88.68V12.253Z" fill="#E9E6E3"/>
<path d="M95.8636 12.253H99.5792V12.5128C99.5792 12.5128 99.5792 12.7726 99.5792 12.9025C99.5792 13.422 99.5792 13.8117 99.3315 14.3313C99.2077 14.8509 98.96 15.2405 98.5884 15.6302C98.2168 16.0199 97.8453 16.2797 97.3498 16.5394C96.8544 16.7992 96.359 16.7992 95.7397 16.7992C95.1205 16.7992 94.625 16.7992 94.1296 16.5394C93.6342 16.2797 93.2626 16.0199 92.8911 15.6302C92.5195 15.2405 92.2718 14.8509 92.0241 14.3313C91.7764 13.8117 91.6525 13.2921 91.6525 12.6427C91.6525 11.9932 91.6525 11.4737 92.0241 10.9541C92.2718 10.4345 92.5195 10.0448 92.8911 9.65517C93.2626 9.2655 93.6342 9.00571 94.1296 8.74593C94.625 8.48614 95.1205 8.48615 95.7397 8.48615C96.359 8.48615 96.8544 8.48614 97.3498 8.74593C97.8453 9.00571 98.2168 9.2655 98.5884 9.65517L97.7214 10.5644C97.4737 10.3046 97.226 10.0448 96.8544 9.91496C96.4829 9.78507 96.1113 9.65517 95.7397 9.65517C95.3682 9.65517 94.9966 9.65517 94.7489 9.91496C94.5012 10.1747 94.1296 10.3046 93.8819 10.5644C93.6342 10.8242 93.3865 11.084 93.2626 11.4737C93.1388 11.8633 93.0149 12.253 93.0149 12.6427C93.0149 13.0324 93.0149 13.5519 93.2626 13.8117C93.3865 14.2014 93.6342 14.4612 93.8819 14.721C94.1296 14.9807 94.3773 15.2405 94.7489 15.3704C95.1205 15.5003 95.492 15.6302 95.8636 15.6302C96.2352 15.6302 96.7306 15.6302 97.1021 15.3704C97.3498 15.2405 97.5976 14.9807 97.8453 14.8509C97.9691 14.721 98.093 14.4612 98.2168 14.2014C98.2168 13.9416 98.4645 13.6818 98.4645 13.422H95.8636V12.253Z" fill="#E9E6E3"/>
<path d="M102.923 8.61603H104.286L107.134 16.6693H105.772L105.029 14.5911H101.932L101.189 16.6693H99.8269L102.676 8.61603H102.923ZM104.781 13.422L104.038 11.084L103.79 10.1747L103.543 11.084L102.799 13.422H105.029H104.781Z" fill="#E9E6E3"/>
<path d="M108.001 8.61604H110.726C111.098 8.61604 111.345 8.61604 111.717 8.74593C111.965 8.74593 112.336 9.00571 112.46 9.2655C112.708 9.52528 112.832 9.78507 112.956 10.0448C113.079 10.3046 113.203 10.6943 113.203 11.084C113.203 11.4737 113.203 11.6036 113.079 11.8633C113.079 12.1231 112.832 12.3829 112.708 12.5128C112.584 12.7726 112.336 12.9025 112.212 13.0324C112.089 13.1623 111.717 13.2922 111.593 13.2922L113.699 16.5395H112.336L110.355 13.422H109.488V16.5395H108.249V8.48615L108.001 8.61604ZM110.726 12.253C110.85 12.253 111.098 12.253 111.222 12.253C111.345 12.253 111.469 12.1231 111.593 11.9932C111.593 11.9932 111.841 11.7334 111.841 11.6036C111.841 11.4737 111.841 11.3438 111.841 11.084C111.841 10.8242 111.841 10.8242 111.841 10.6943C111.841 10.5644 111.717 10.4345 111.593 10.3046C111.593 10.3046 111.345 10.0448 111.222 10.0448C111.098 10.0448 110.85 10.0448 110.726 10.0448H109.24V12.5128H110.726V12.253Z" fill="#E9E6E3"/>
<path d="M117.91 9.78507V11.9932H121.006V13.1623H117.91V15.3704H121.378V16.5395H116.671V8.48615H121.378V9.65517H117.91V9.78507Z" fill="#E9E6E3"/>
<path d="M122.616 8.61603H124.103L127.447 14.4612V12.9025V8.61603H128.685V16.6693H127.447L123.855 10.5644V12.1231V16.6693H122.616V8.61603Z" fill="#E9E6E3"/>
</svg>
