<svg width="149" height="52" viewBox="0 0 149 52" fill="none" xmlns="http://www.w3.org/2000/svg">
<path d="M149 10.9541C149 10.5645 149 10.1748 149 9.78511C149 8.87587 149 8.09652 148.752 7.18727C148.628 6.27803 148.381 5.49868 148.009 4.71933C147.266 3.16062 146.027 1.8617 144.541 1.08235C143.798 0.692673 143.055 0.432889 142.188 0.302997C141.321 0.173105 140.578 0.0432129 139.711 0.0432129C139.339 0.0432129 138.968 0.0432129 138.596 0.0432129C138.101 0.0432129 137.729 0.0432129 137.234 0.0432129H12.6359C12.1405 0.0432129 11.7689 0.0432129 11.2735 0.0432129C10.9019 0.0432129 10.5303 0.0432129 10.1588 0.0432129C9.2918 0.0432129 8.54867 0.0432129 7.68169 0.302997C6.8147 0.432889 6.07157 0.692673 5.32845 1.08235C4.58532 1.47203 3.96604 1.99159 3.34677 2.64105C2.7275 3.29051 2.23208 3.93997 1.86051 4.71933C1.48895 5.49868 1.24124 6.27803 1.11738 7.18727C0.745819 8.09652 0.745819 9.00576 0.745819 9.78511C0.745819 10.1748 0.745819 10.5645 0.745819 10.9541V40.9592C0.745819 41.3489 0.745819 41.7386 0.745819 42.1282C0.745819 43.0375 0.745819 43.8168 0.993529 44.7261C1.11738 45.6353 1.36509 46.4147 1.73666 47.194C2.10822 47.9734 2.60364 48.6228 3.22291 49.2723C3.84219 49.9217 4.46146 50.4413 5.20459 50.831C5.94772 51.2207 6.69085 51.4805 7.55783 51.6103C8.42481 51.7402 9.16794 51.8701 10.0349 51.8701C10.4065 51.8701 10.7781 51.8701 11.1496 51.8701C11.645 51.8701 12.0166 51.8701 12.512 51.8701H137.11C137.605 51.8701 137.977 51.8701 138.472 51.8701C138.844 51.8701 139.215 51.8701 139.587 51.8701C140.454 51.8701 141.197 51.8701 142.064 51.6103C142.931 51.4805 143.674 51.2207 144.417 50.831C145.16 50.4413 145.78 49.9217 146.399 49.2723C147.018 48.6228 147.514 47.9734 147.885 47.194C148.257 46.4147 148.505 45.6353 148.628 44.7261C148.752 43.8168 148.876 43.0375 148.876 42.1282C148.876 41.7386 148.876 41.3489 148.876 40.9592C148.876 40.4396 148.876 40.05 148.876 39.5304V12.383C148.876 11.8634 148.876 11.4737 148.876 10.9541H149ZM147.885 39.6603C147.885 40.1798 147.885 40.5695 147.885 41.0891C147.885 41.4788 147.885 41.8684 147.885 42.2581C147.885 43.0375 147.885 43.8168 147.638 44.7261C147.638 45.5054 147.266 46.1549 147.018 46.9342C146.647 47.5837 146.275 48.2332 145.78 48.7527C145.284 49.2723 144.665 49.7919 144.046 50.0516C143.427 50.4413 142.683 50.7011 141.94 50.7011C141.197 50.831 140.454 50.9609 139.587 50.9609C139.215 50.9609 138.844 50.9609 138.472 50.9609H137.11H11.1496C10.7781 50.9609 10.4065 50.9609 10.0349 50.9609C9.2918 50.9609 8.42481 50.9609 7.68169 50.7011C6.93856 50.7011 6.31928 50.3114 5.57616 50.0516C4.95688 49.662 4.33761 49.2723 3.84219 48.7527C3.34677 48.2332 2.85135 47.5837 2.60364 46.9342C2.23208 46.2848 2.10822 45.5054 1.98437 44.7261C1.86051 43.9467 1.73666 43.1674 1.73666 42.2581C1.73666 41.9983 1.73666 41.0891 1.73666 41.0891V10.9541C1.73666 10.9541 1.73666 10.0449 1.73666 9.78511C1.73666 9.00576 1.73666 8.09652 1.98437 7.31717C1.98437 6.53781 2.35593 5.88835 2.60364 5.109C2.9752 4.45954 3.34677 3.81008 3.84219 3.29051C4.33761 2.77095 4.95688 2.25138 5.57616 1.99159C6.19543 1.60192 6.93856 1.47203 7.68169 1.34213C8.42481 1.21224 9.16794 1.08235 10.0349 1.08235H11.1496H138.472H139.587C140.33 1.08235 141.073 1.08235 141.94 1.34213C142.683 1.34213 143.303 1.73181 144.046 1.99159C145.284 2.64105 146.399 3.81008 147.018 5.109C147.39 5.75846 147.514 6.53781 147.638 7.18727C147.761 7.96663 147.885 8.87587 147.885 9.65522C147.885 10.0449 147.885 10.4346 147.885 10.8243C147.885 11.3438 147.885 11.7335 147.885 12.2531V39.4005V39.6603Z" fill="#E9E6E3"/>
<path d="M31.4618 26.4112C31.4618 24.203 32.5765 22.1248 34.4343 20.9557C33.3196 19.2671 31.4618 18.228 29.4801 18.0981C27.3746 17.8383 25.3929 19.397 24.2782 19.397C23.1635 19.397 21.5534 18.0981 19.8194 18.0981C17.4662 18.0981 15.3606 19.5269 14.2459 21.6052C11.8927 25.8916 13.6267 32.3862 15.9799 35.8933C17.0946 37.5819 18.457 39.5303 20.191 39.5303C21.9249 39.5303 22.5442 38.3613 24.6497 38.3613C26.7553 38.3613 27.2507 39.5303 29.1085 39.5303C30.9663 39.5303 32.081 37.8417 33.1957 36.0232C34.0627 34.8542 34.682 33.4254 35.0535 31.9966C32.8242 31.0873 31.4618 28.7493 31.4618 26.2813V26.4112Z" fill="#E9E6E3"/>
<path d="M27.9938 15.89C28.9847 14.5911 29.4801 13.0323 29.3562 11.3438C27.87 11.4736 26.3837 12.253 25.3929 13.5519C24.402 14.7209 23.9066 16.2796 24.0305 17.9682C25.6406 17.9682 27.003 17.1889 27.9938 16.0199V15.89Z" fill="#E9E6E3"/>
<path d="M53.1363 35.2441H47.3152L45.9528 39.6604H43.4757L49.0491 23.5538H51.6501L57.2236 39.6604H54.7465L53.3841 35.2441H53.1363ZM47.9344 33.2957H52.6409L50.4115 26.2815L48.0583 33.2957H47.9344Z" fill="#E9E6E3"/>
<path d="M69.1137 33.815C69.1137 37.452 67.2558 39.79 64.4072 39.79C62.9209 39.79 61.5585 39.0107 60.9392 37.7118V43.5569H58.586V27.9699H60.8154V29.9182C61.5585 28.6193 62.9209 27.84 64.4072 27.84C67.2558 27.84 69.1137 30.178 69.1137 33.815ZM66.6366 33.815C66.6366 31.4769 65.5219 29.9182 63.664 29.9182C61.8062 29.9182 60.6915 31.4769 60.6915 33.815C60.6915 36.1531 61.9301 37.7118 63.664 37.7118C65.398 37.7118 66.6366 36.1531 66.6366 33.815Z" fill="#E9E6E3"/>
<path d="M81.3752 33.815C81.3752 37.452 79.5174 39.79 76.6687 39.79C75.1825 39.79 73.8201 39.0107 73.2008 37.7118V43.5569H70.8475V27.9699H73.0769V29.9182C73.8201 28.6193 75.1825 27.84 76.6687 27.84C79.5174 27.84 81.3752 30.178 81.3752 33.815ZM79.022 33.815C79.022 31.4769 77.9073 29.9182 76.0494 29.9182C74.1916 29.9182 73.0769 31.4769 73.0769 33.815C73.0769 36.1531 74.3155 37.7118 76.0494 37.7118C77.7834 37.7118 79.022 36.1531 79.022 33.815Z" fill="#E9E6E3"/>
<path d="M89.5496 35.1141C89.6735 36.6728 91.1597 37.7119 93.2653 37.7119C95.3708 37.7119 96.6093 36.6728 96.6093 35.244C96.6093 33.8151 95.7424 33.2956 93.7607 32.776L91.779 32.2564C88.9303 31.4771 87.6918 30.1782 87.6918 27.97C87.6918 25.7618 90.045 23.2939 93.2653 23.2939C96.4855 23.2939 98.7149 25.2423 98.8387 27.97H96.4855C96.3616 26.4113 95.1231 25.3722 93.2653 25.3722C91.4074 25.3722 90.1689 26.4113 90.1689 27.8401C90.1689 29.2689 91.0359 29.6586 93.0176 30.1782L94.7515 30.5678C97.8479 31.3472 99.2103 32.6461 99.2103 34.9842C99.2103 37.3222 96.8571 39.9201 93.2653 39.9201C89.6735 39.9201 87.5679 38.1016 87.4441 35.1141H89.7973H89.5496Z" fill="#E9E6E3"/>
<path d="M103.917 25.1124V27.8401H106.022V29.7885H103.917V36.2831C103.917 37.3222 104.288 37.7119 105.279 37.7119C105.527 37.7119 105.775 37.7119 106.022 37.7119V39.6603C105.651 39.6603 105.155 39.6603 104.784 39.6603C102.554 39.6603 101.687 38.751 101.687 36.5429V29.7885H100.077V27.8401H101.687V25.1124H104.041H103.917Z" fill="#E9E6E3"/>
<path d="M107.385 33.815C107.385 30.178 109.49 27.84 112.71 27.84C115.931 27.84 118.036 30.178 118.036 33.815C118.036 37.452 115.931 39.79 112.71 39.79C109.49 39.79 107.385 37.452 107.385 33.815ZM115.683 33.815C115.683 31.2172 114.568 29.7883 112.71 29.7883C110.853 29.7883 109.738 31.3471 109.738 33.815C109.738 36.2829 110.853 37.8417 112.71 37.8417C114.568 37.8417 115.683 36.4128 115.683 33.815Z" fill="#E9E6E3"/>
<path d="M119.894 27.8401H122.123V29.7885C122.371 28.4896 123.61 27.5803 124.848 27.7102C125.096 27.7102 125.344 27.7102 125.591 27.7102V29.9184C125.22 29.9184 124.848 29.7885 124.6 29.7885C123.362 29.7885 122.247 30.8276 122.247 32.1265C122.247 32.1265 122.247 32.3863 122.247 32.5162V39.5304H119.894V27.7102V27.8401Z" fill="#E9E6E3"/>
<path d="M136.243 36.1532C135.995 38.2315 133.89 39.7902 131.412 39.7902C128.935 39.7902 126.087 37.4522 126.087 33.8152C126.087 30.1782 128.068 27.7103 131.289 27.7103C134.509 27.7103 136.367 29.9184 136.367 33.5554V34.3348H128.44C128.316 36.1532 129.431 37.712 131.041 37.8418C131.041 37.8418 131.289 37.8418 131.412 37.8418C132.527 37.8418 133.642 37.3223 134.013 36.1532H136.243ZM128.44 32.6462H134.013C134.013 31.0875 132.899 29.7885 131.412 29.6586C131.412 29.6586 131.289 29.6586 131.165 29.6586C129.555 29.6586 128.316 30.9576 128.316 32.6462H128.44Z" fill="#E9E6E3"/>
<path d="M44.5905 15.2405C44.5905 12.7726 45.829 11.2139 47.9345 11.2139C49.4208 11.2139 50.7832 12.253 51.0309 13.9416H49.9162C49.6685 13.0324 48.9254 12.3829 47.9345 12.3829C46.5721 12.3829 45.829 13.5519 45.829 15.3704C45.829 17.1889 46.696 18.3579 47.9345 18.3579C48.8015 18.3579 49.6685 17.8384 49.9162 16.9291H51.0309C50.7832 18.4878 49.4208 19.6568 47.9345 19.527C45.829 19.527 44.5905 17.9683 44.5905 15.5003V15.2405Z" fill="#E9E6E3"/>
<path d="M52.2694 16.1498C52.1456 14.5911 53.1364 13.2921 54.6227 13.1622C56.1089 13.0324 57.3475 14.0715 57.4713 15.6302C57.4713 15.7601 57.4713 16.0199 57.4713 16.1498C57.5952 17.7085 56.6044 19.0074 55.1181 19.1373C53.6318 19.2672 52.3933 18.228 52.2694 16.6693C52.2694 16.5394 52.2694 16.2797 52.2694 16.1498ZM56.3566 16.1498C56.3566 14.8508 55.8612 14.2014 54.8704 14.2014C53.8795 14.2014 53.3841 14.9807 53.3841 16.1498C53.3841 17.3188 53.8795 18.228 54.8704 18.228C55.8612 18.228 56.3566 17.4487 56.3566 16.1498Z" fill="#E9E6E3"/>
<path d="M58.9576 13.2921H60.0723V14.2014C60.32 13.5519 61.0631 13.1622 61.6824 13.1622C62.6732 13.1622 63.5402 13.8117 63.664 14.9807C63.664 15.1106 63.664 15.2405 63.664 15.3704V19.1373H62.5494V15.6302C62.5494 14.7209 62.1778 14.2014 61.3108 14.2014C60.5677 14.2014 59.9484 14.7209 59.9484 15.5003C59.9484 15.5003 59.9484 15.6302 59.9484 15.7601V19.1373H58.8337V13.2921H58.9576Z" fill="#E9E6E3"/>
<path d="M67.5036 13.1622C68.7422 13.1622 69.6092 13.8117 69.733 14.8508H68.6183C68.6183 14.4612 68.1229 14.2014 67.5036 14.2014C66.8844 14.2014 66.3889 14.4612 66.3889 14.9807C66.3889 15.5003 66.6366 15.5003 67.2559 15.7601L68.1229 16.0199C69.2376 16.2796 69.733 16.7992 69.733 17.5786C69.733 18.3579 68.7422 19.397 67.3798 19.397C66.0174 19.397 65.1504 18.7476 65.1504 17.7085H66.2651C66.5128 18.228 67.0082 18.4878 67.5036 18.4878C68.2468 18.4878 68.6183 18.228 68.6183 17.7085C68.6183 17.1889 68.3706 17.1889 67.7513 17.059L66.7605 16.7992C65.6458 16.5394 65.1504 16.0199 65.1504 15.1106C65.1504 14.0715 66.0174 13.2921 67.2559 13.2921L67.5036 13.1622Z" fill="#E9E6E3"/>
<path d="M71.2192 12.2531L72.4577 10.4346H73.6963L72.21 12.2531H71.0953H71.2192ZM71.343 13.2922H72.4577V19.1373H71.343V13.2922Z" fill="#E9E6E3"/>
<path d="M74.0679 19.6568H75.1826C75.1826 20.0465 75.8019 20.3063 76.545 20.3063C77.2881 20.3063 78.0313 19.7867 78.0313 19.1373V17.9682C77.6597 18.6177 77.0404 19.0074 76.2973 19.0074C74.9349 19.0074 73.9441 17.8383 73.9441 16.1497C73.9441 14.4612 74.811 13.1622 76.2973 13.1622C77.0404 13.1622 77.6597 13.5519 78.0313 14.2014V13.2921H79.146V19.1373C79.146 20.4362 78.1551 21.3454 76.545 21.3454C75.1826 21.3454 74.1918 20.696 74.1918 19.6568H74.0679ZM78.0313 16.1497C78.0313 14.9807 77.412 14.2014 76.545 14.2014C75.678 14.2014 75.0588 14.9807 75.0588 16.1497C75.0588 17.3188 75.5542 18.0981 76.545 18.0981C77.5359 18.0981 78.0313 17.3188 78.0313 16.1497Z" fill="#E9E6E3"/>
<path d="M85.5864 19.1373H84.4717V18.2281C84.224 18.8775 83.4808 19.3971 82.7377 19.2672C81.7469 19.2672 80.8799 18.6177 80.756 17.4487C80.756 17.3188 80.756 17.1889 80.756 17.059V13.2922H81.8707V16.7993C81.8707 17.7085 82.2423 18.2281 82.9854 18.2281C83.7286 18.2281 84.3478 17.7085 84.3478 17.059C84.3478 17.059 84.3478 16.9292 84.3478 16.7993V13.4221H85.4625V19.2672L85.5864 19.1373Z" fill="#E9E6E3"/>
<path d="M92.0268 17.5786C91.7791 18.6177 90.6644 19.3971 89.5497 19.2672C88.1873 19.2672 86.9488 18.0982 86.9488 16.6694C86.9488 16.5395 86.9488 16.4096 86.9488 16.2797C86.7011 14.8509 87.6919 13.4221 89.1782 13.2922C89.1782 13.2922 89.4259 13.2922 89.5497 13.2922C91.1599 13.2922 92.0268 14.4612 92.0268 16.2797V16.6694H88.0635C88.0635 17.5786 88.5589 18.358 89.4259 18.358C89.4259 18.358 89.4259 18.358 89.5497 18.358C90.0452 18.358 90.6644 18.0982 90.9122 17.7085H92.0268V17.5786ZM88.1873 15.6302H91.036C91.036 14.8509 90.5406 14.2014 89.7975 14.0715C89.7975 14.0715 89.7975 14.0715 89.6736 14.0715C88.9305 14.0715 88.1873 14.721 88.1873 15.5003V15.6302Z" fill="#E9E6E3"/>
<path d="M93.637 10.954H94.7517V19.1372H93.637V10.954Z" fill="#E9E6E3"/>
<path d="M96.2379 16.1498C96.114 14.5911 97.1049 13.2921 98.5911 13.1622C100.077 13.0324 101.316 14.0715 101.44 15.6302C101.44 15.7601 101.44 16.0199 101.44 16.1498C101.564 17.7085 100.573 19.0074 99.0865 19.1373C97.6003 19.2672 96.3617 18.228 96.2379 16.6693C96.2379 16.5394 96.2379 16.2797 96.2379 16.1498ZM100.325 16.1498C100.325 14.8508 99.8297 14.2014 98.8388 14.2014C97.848 14.2014 97.3526 14.9807 97.3526 16.1498C97.3526 17.3188 97.848 18.228 98.8388 18.228C99.8297 18.228 100.325 17.4487 100.325 16.1498Z" fill="#E9E6E3"/>
<path d="M110.729 17.5786C110.481 18.6177 109.366 19.3971 108.252 19.2672C106.889 19.2672 105.651 18.0982 105.651 16.6694C105.651 16.5395 105.651 16.4096 105.651 16.2797C105.403 14.8509 106.394 13.4221 107.88 13.2922C107.88 13.2922 108.128 13.2922 108.252 13.2922C109.862 13.2922 110.729 14.4612 110.729 16.2797V16.6694H106.765C106.765 17.5786 107.261 18.358 108.128 18.358C108.128 18.358 108.128 18.358 108.252 18.358C108.747 18.358 109.366 18.0982 109.614 17.7085H110.729V17.5786ZM106.889 15.6302H109.738C109.738 14.8509 109.243 14.2014 108.499 14.0715C108.499 14.0715 108.499 14.0715 108.376 14.0715C107.632 14.0715 106.889 14.721 106.889 15.5003V15.6302Z" fill="#E9E6E3"/>
<path d="M112.215 13.2921H113.33V14.2014C113.578 13.5519 114.321 13.1622 114.94 13.1622C115.931 13.1622 116.798 13.8117 116.922 14.9807C116.922 15.1106 116.922 15.2405 116.922 15.3704V19.1373H115.807V15.6302C115.807 14.7209 115.435 14.2014 114.568 14.2014C113.825 14.2014 113.206 14.7209 113.206 15.5003C113.206 15.5003 113.206 15.6302 113.206 15.7601V19.1373H112.091V13.2921H112.215Z" fill="#E9E6E3"/>
<path d="M126.458 17.5786C126.211 18.6177 125.096 19.3971 123.981 19.2672C122.619 19.2672 121.38 18.0982 121.38 16.6694C121.38 16.5395 121.38 16.4096 121.38 16.2797C121.133 14.8509 122.124 13.4221 123.61 13.2922C123.61 13.2922 123.857 13.2922 123.981 13.2922C125.591 13.2922 126.458 14.4612 126.458 16.2797V16.6694H122.495C122.495 17.5786 122.991 18.358 123.857 18.358C123.857 18.358 123.857 18.358 123.981 18.358C124.477 18.358 125.096 18.0982 125.344 17.7085H126.458V17.5786ZM122.619 15.6302H125.468C125.468 14.8509 124.972 14.2014 124.229 14.0715C124.229 14.0715 124.229 14.0715 124.105 14.0715C123.362 14.0715 122.619 14.721 122.619 15.5003V15.6302Z" fill="#E9E6E3"/>
<path d="M128.069 10.954H129.183V19.1372H128.069V10.954Z" fill="#E9E6E3"/>
</svg>
