<svg width="365" height="52" viewBox="0 0 365 52" fill="none" xmlns="http://www.w3.org/2000/svg">
<path d="M161.011 1.08235C163.86 1.08235 166.213 3.5503 166.213 6.53781V45.5054C166.213 48.4929 163.86 50.9609 161.011 50.9609H6.19274C3.34408 50.9609 0.990838 48.4929 0.990838 45.5054V6.53781C0.990838 3.5503 3.34408 1.08235 6.19274 1.08235H161.011ZM161.011 0.0432129H6.19274C2.7248 0.0432129 0 2.90084 0 6.53781V45.5054C0 49.1424 2.7248 52 6.19274 52H161.011C164.355 52 167.204 49.1424 167.204 45.5054V6.53781C167.204 2.90084 164.479 0.0432129 161.011 0.0432129Z" fill="#E9E6E3"/>
<path d="M84.3451 28.3596C81.3726 28.3596 79.0193 30.6976 79.0193 33.9449C79.0193 37.1922 81.3726 39.5303 84.3451 39.5303C87.3176 39.5303 89.6708 37.1922 89.6708 33.9449C89.6708 30.6976 87.3176 28.3596 84.3451 28.3596ZM84.3451 37.1922C82.735 37.1922 81.3725 35.7634 81.3725 33.815C81.3725 31.8666 82.735 30.4378 84.3451 30.4378C85.9552 30.4378 87.3176 31.7368 87.3176 33.815C87.3176 35.8933 85.9552 37.1922 84.3451 37.1922ZM72.8266 28.3596C69.8541 28.3596 67.5008 30.6976 67.5008 33.9449C67.5008 37.1922 69.8541 39.5303 72.8266 39.5303C75.7991 39.5303 78.1523 37.1922 78.1523 33.9449C78.1523 30.6976 75.7991 28.3596 72.8266 28.3596ZM72.8266 37.1922C71.2165 37.1922 69.8541 35.7634 69.8541 33.815C69.8541 31.8666 71.2165 30.4378 72.8266 30.4378C74.4367 30.4378 75.7991 31.7368 75.7991 33.815C75.7991 35.8933 74.4367 37.1922 72.8266 37.1922ZM59.0787 30.0482V32.3862H64.4045C64.2806 33.6851 63.7852 34.7243 63.1659 35.3737C62.5466 36.0232 61.1842 37.0623 59.0787 37.0623C55.7346 37.0623 53.2575 34.3346 53.2575 30.8275C53.2575 27.3204 55.8585 24.5927 59.0787 24.5927C62.2989 24.5927 62.1751 25.372 63.1659 26.2813L64.776 24.5927C63.4136 23.2938 61.6796 22.2546 59.2026 22.2546C54.7438 22.2546 50.9043 26.1514 50.9043 30.8275C50.9043 35.5036 54.7438 39.4004 59.2026 39.4004C63.6613 39.4004 63.4136 38.621 64.8999 36.9324C66.3861 35.3737 66.8815 33.1656 66.8815 31.477C66.8815 29.7884 66.8815 30.4378 66.8815 30.0482H59.3264H59.0787ZM115.309 31.8666C114.813 30.5677 113.575 28.3596 110.85 28.3596C108.125 28.3596 105.896 30.5677 105.896 33.9449C105.896 37.3221 108.125 39.5303 111.098 39.5303C114.07 39.5303 114.937 37.9716 115.433 37.0623L113.699 35.7634C113.079 36.6727 112.336 37.3221 111.098 37.3221C109.859 37.3221 109.116 36.8025 108.497 35.6335L115.556 32.5161L115.309 31.8666ZM108.125 33.6851C108.125 31.6069 109.735 30.4378 110.85 30.4378C111.965 30.4378 112.584 30.9574 112.832 31.6069L108.125 33.6851ZM102.304 39.0107H104.657V22.7742H102.304V39.0107ZM98.5884 29.5286C98.0929 28.8791 97.1021 28.2297 95.8636 28.2297C93.2626 28.2297 90.7855 30.6976 90.7855 33.815C90.7855 36.9324 93.1388 39.2705 95.8636 39.2705C98.5884 39.2705 98.0929 38.621 98.5884 37.9716V38.7509C98.5884 40.8292 97.4737 41.9982 95.7397 41.9982C94.0057 41.9982 93.3865 40.9591 93.1388 40.0498L91.1571 40.9591C91.7764 42.3879 93.2626 44.2064 95.8636 44.2064C98.4645 44.2064 100.818 42.5178 100.818 38.4911V28.6193H98.5884V29.5286ZM95.8636 37.1922C94.2534 37.1922 92.891 35.7634 92.891 33.815C92.891 31.8666 94.2534 30.4378 95.8636 30.4378C97.4737 30.4378 98.7122 31.8666 98.7122 33.815C98.7122 35.7634 97.4737 37.1922 95.8636 37.1922ZM126.084 22.7742H120.511V39.0107H122.864V32.9058H126.084C128.685 32.9058 131.162 30.9574 131.162 27.84C131.162 24.7226 128.685 22.7742 126.084 22.7742ZM126.208 30.5677H122.864V24.9824H126.208C127.942 24.9824 128.933 26.5411 128.933 27.7101C128.933 28.8791 127.942 30.4378 126.208 30.4378V30.5677ZM140.451 28.2297C138.717 28.2297 136.983 29.009 136.364 30.6976L138.47 31.6069C138.965 30.6976 139.708 30.4378 140.575 30.4378C141.442 30.4378 142.928 31.2172 143.052 32.5161C142.681 32.5161 141.69 31.9965 140.699 31.9965C138.47 31.9965 136.24 33.2955 136.24 35.6335C136.24 37.9716 138.098 39.2705 140.08 39.2705C142.061 39.2705 142.433 38.4911 143.052 37.7118V39.0107H145.282V32.7759C145.282 29.9183 143.176 28.2297 140.575 28.2297H140.451ZM140.204 37.1922C139.46 37.1922 138.346 36.8025 138.346 35.7634C138.346 34.7243 139.708 34.0748 140.823 34.0748C141.938 34.0748 142.309 34.3346 142.928 34.5944C142.805 36.1531 141.566 37.1922 140.204 37.1922ZM153.208 28.6193L150.607 35.6335L147.883 28.6193H145.405L149.493 38.4911L147.139 43.9466H149.493L155.809 28.6193H153.208ZM132.401 39.0107H134.754V22.7742H132.401V39.0107Z" fill="#E9E6E3"/>
<path d="M25.638 25.2423L12.5094 39.9201C12.8809 41.4788 14.2433 42.6478 15.9773 42.6478C17.7113 42.6478 17.2158 42.518 17.8351 42.1283L32.6977 33.1657L25.7618 25.2423H25.638Z" fill="#EA4335"/>
<path d="M39.0142 22.7743L32.5738 18.8775L25.3902 25.6319L32.5738 33.1656L38.8904 29.2689C40.0051 28.6194 40.7482 27.4504 40.7482 26.0216C40.7482 24.5928 40.0051 23.4237 38.8904 22.7743H39.0142Z" fill="#FBBC04"/>
<path d="M12.5094 12.1232C12.5094 12.383 12.5094 12.7726 12.5094 13.0324V39.0108C12.5094 39.4005 12.5094 39.6603 12.5094 39.9201L26.1334 25.6319L12.5094 12.1232Z" fill="#4285F4"/>
<path d="M25.7618 26.0216L32.5738 18.8776L17.7112 9.91501C17.2158 9.52534 16.5965 9.39545 15.8534 9.39545C14.2433 9.39545 12.757 10.5645 12.3855 12.1232L25.6379 26.0216H25.7618Z" fill="#34A853"/>
<path d="M51.6475 8.61611H54.1246C54.7438 8.61611 55.2392 8.61611 55.7347 8.87589C56.2301 9.13568 56.6017 9.39546 56.9732 9.65524C57.3448 10.0449 57.5925 10.4346 57.7163 10.9542C57.8402 11.4737 57.9641 11.9933 57.9641 12.5129C57.9641 13.0324 57.9641 13.6819 57.7163 14.0716C57.5925 14.5911 57.2209 14.9808 56.9732 15.3705C56.6017 15.7602 56.2301 16.02 55.7347 16.1498C55.2392 16.4096 54.7438 16.4096 54.1246 16.4096H51.6475V8.35632V8.61611ZM54.0007 15.3705C54.8677 15.3705 55.487 15.1107 55.9824 14.5911C56.4778 14.0716 56.7255 13.4221 56.7255 12.5129C56.7255 11.6036 56.4778 10.9542 55.9824 10.4346C55.487 9.91503 54.8677 9.65524 54.0007 9.65524H52.7622V15.2406H54.0007V15.3705Z" fill="#E9E6E3"/>
<path d="M60.3173 9.78507V11.9932H63.4137V13.1623H60.3173V15.3704H63.7852V16.5395H59.2026V8.48615H63.7852V9.65517H60.3173V9.78507Z" fill="#E9E6E3"/>
<path d="M67.2532 16.7992C67.0054 16.7992 66.6339 16.7992 66.3862 16.6693C66.1385 16.6693 65.8908 16.4095 65.643 16.2796C65.3953 16.1498 65.1476 15.89 65.0238 15.6302C64.8999 15.3704 64.6522 14.9807 64.6522 14.7209L65.7669 14.2014C65.7669 14.4612 65.7669 14.5911 66.0146 14.8508C66.0146 14.9807 66.2623 15.2405 66.3862 15.3704C66.51 15.5003 66.6339 15.6302 66.8816 15.6302C67.0054 15.6302 67.2532 15.6302 67.5009 15.6302C67.7486 15.6302 67.8724 15.6302 67.9963 15.6302C68.1201 15.6302 68.244 15.6302 68.3678 15.3704C68.3678 15.3704 68.6156 15.1106 68.6156 14.9807C68.6156 14.8508 68.6156 14.7209 68.6156 14.4612C68.6156 14.2014 68.6156 14.2014 68.6156 14.0715C68.6156 13.9416 68.4917 13.8117 68.3678 13.6818C68.3678 13.6818 68.1201 13.422 67.8724 13.422C67.6247 13.422 67.377 13.1622 67.1293 13.1622H66.6339C66.3862 12.9025 66.2623 12.7726 66.0146 12.6427C65.7669 12.6427 65.643 12.3829 65.3953 12.253C65.1476 12.1231 65.0238 11.8633 65.0238 11.6035C65.0238 11.3438 64.8999 11.084 64.8999 10.8242C64.8999 10.5644 64.8999 10.3046 65.0238 10.0448C65.0238 9.78505 65.2715 9.52526 65.5192 9.39537C65.7669 9.13559 66.0146 9.0057 66.2623 8.8758C66.51 8.8758 66.8816 8.74591 67.2532 8.74591C67.6247 8.74591 67.9963 8.74591 68.244 8.8758C68.4917 8.8758 68.7394 9.13559 68.9871 9.26548C69.2348 9.39537 69.3587 9.65516 69.4825 9.78505C69.6064 9.91494 69.7302 10.1747 69.7302 10.3046L68.6156 10.8242C68.6156 10.8242 68.6156 10.5644 68.4917 10.4345C68.4917 10.4345 68.3678 10.1747 68.244 10.1747C68.244 10.1747 67.9963 10.0448 67.8724 9.91494C67.7486 9.91494 67.5009 9.91494 67.377 9.91494C67.2532 9.91494 67.0054 9.91494 66.8816 9.91494C66.7577 9.91494 66.6339 9.91494 66.51 10.1747C66.3862 10.4345 66.2623 10.3046 66.2623 10.4345C66.2623 10.4345 66.2623 10.6943 66.2623 10.8242C66.2623 11.084 66.2623 11.3438 66.6339 11.4736C67.0054 11.6035 67.1293 11.8633 67.6247 11.9932H68.1201C68.3678 12.253 68.7394 12.3829 68.9871 12.5128C69.2348 12.6427 69.4825 12.7726 69.6064 13.0323C69.7303 13.2921 69.978 13.422 69.978 13.6818C69.978 13.9416 70.1018 14.2014 70.1018 14.5911C70.1018 14.9807 70.1018 15.3704 69.8541 15.6302C69.7303 15.89 69.4825 16.1498 69.2348 16.4095C68.9871 16.5394 68.7394 16.7992 68.3678 16.7992C68.1201 16.7992 67.7486 16.9291 67.5009 16.9291L67.2532 16.7992Z" fill="#E9E6E3"/>
<path d="M77.5331 15.3704C77.1615 15.7601 76.7899 16.1498 76.1707 16.4096C75.6753 16.6693 75.056 16.7992 74.4367 16.7992C73.8174 16.7992 73.322 16.7992 72.8266 16.5394C72.3312 16.2797 71.9596 16.0199 71.588 15.6302C71.2165 15.2405 70.9688 14.8509 70.7211 14.3313C70.4734 13.8117 70.4734 13.2921 70.4734 12.6427C70.4734 11.9932 70.4734 11.4737 70.7211 10.9541C70.9688 10.4345 71.2165 10.0448 71.588 9.65517C71.9596 9.2655 72.3312 9.00571 72.8266 8.74593C73.322 8.48614 73.8174 8.48615 74.4367 8.48615C75.056 8.48615 75.5514 8.48615 76.0468 8.87582C76.5422 9.2655 76.9138 9.39539 77.2854 9.78507L76.4184 10.6943C76.1707 10.4345 75.923 10.1747 75.5514 9.91496C75.1798 9.78507 74.8083 9.65517 74.4367 9.65517C74.0651 9.65517 73.6936 9.65517 73.322 9.91496C72.9505 10.0448 72.7027 10.3046 72.455 10.5644C72.2073 10.8242 71.9596 11.084 71.8358 11.4737C71.7119 11.8633 71.588 12.253 71.588 12.7726C71.588 13.2922 71.588 13.6818 71.8358 14.0715C72.0835 14.4612 72.2073 14.721 72.455 14.9807C72.7027 15.2405 72.9505 15.5003 73.322 15.6302C73.6936 15.7601 74.0651 15.89 74.4367 15.89C74.8083 15.89 75.3037 15.89 75.6753 15.6302C76.0468 15.3704 76.2945 15.1106 76.6661 14.8509L77.5331 15.7601V15.3704Z" fill="#E9E6E3"/>
<path d="M80.8772 8.61603H82.2396L85.0882 16.6693H83.7258L82.9827 14.5911H79.8863L79.1432 16.6693H77.7808L80.6295 8.61603H80.8772ZM82.735 13.422L81.9919 11.084L81.7442 10.1747L81.4965 11.084L80.7533 13.422H82.9827H82.735Z" fill="#E9E6E3"/>
<path d="M85.9552 8.61604H88.68C89.0516 8.61604 89.2993 8.61604 89.6709 8.74593C89.9186 8.74593 90.2901 9.00571 90.414 9.2655C90.6617 9.52528 90.7856 9.78507 90.9094 10.0448C91.0333 10.3046 91.1571 10.6943 91.1571 11.084C91.1571 11.4737 91.1571 11.6036 91.0333 11.8633C91.0333 12.1231 90.7856 12.3829 90.6617 12.5128C90.5379 12.7726 90.2901 12.9025 90.1663 13.0324C90.0424 13.1623 89.6709 13.2922 89.547 13.2922L91.6525 16.5395H90.2901L88.3085 13.422H87.4415V16.5395H86.2029V8.48615L85.9552 8.61604ZM88.68 12.253C88.8039 12.253 89.0516 12.253 89.1755 12.253C89.2993 12.253 89.4232 12.1231 89.547 11.9932C89.547 11.9932 89.7947 11.7334 89.7947 11.6036C89.7947 11.4737 89.7947 11.3438 89.7947 11.084C89.7947 10.8242 89.7947 10.8242 89.7947 10.6943C89.7947 10.5644 89.6709 10.4345 89.547 10.3046C89.547 10.3046 89.2993 10.0448 89.1755 10.0448C89.0516 10.0448 88.8039 10.0448 88.68 10.0448H87.1938V12.5128H88.68V12.253Z" fill="#E9E6E3"/>
<path d="M95.8636 12.253H99.5792V12.5128C99.5792 12.5128 99.5792 12.7726 99.5792 12.9025C99.5792 13.422 99.5792 13.8117 99.3315 14.3313C99.2077 14.8509 98.96 15.2405 98.5884 15.6302C98.2168 16.0199 97.8453 16.2797 97.3498 16.5394C96.8544 16.7992 96.359 16.7992 95.7397 16.7992C95.1205 16.7992 94.625 16.7992 94.1296 16.5394C93.6342 16.2797 93.2626 16.0199 92.8911 15.6302C92.5195 15.2405 92.2718 14.8509 92.0241 14.3313C91.7764 13.8117 91.6525 13.2921 91.6525 12.6427C91.6525 11.9932 91.6525 11.4737 92.0241 10.9541C92.2718 10.4345 92.5195 10.0448 92.8911 9.65517C93.2626 9.2655 93.6342 9.00571 94.1296 8.74593C94.625 8.48614 95.1205 8.48615 95.7397 8.48615C96.359 8.48615 96.8544 8.48614 97.3498 8.74593C97.8453 9.00571 98.2168 9.2655 98.5884 9.65517L97.7214 10.5644C97.4737 10.3046 97.226 10.0448 96.8544 9.91496C96.4829 9.78507 96.1113 9.65517 95.7397 9.65517C95.3682 9.65517 94.9966 9.65517 94.7489 9.91496C94.5012 10.1747 94.1296 10.3046 93.8819 10.5644C93.6342 10.8242 93.3865 11.084 93.2626 11.4737C93.1388 11.8633 93.0149 12.253 93.0149 12.6427C93.0149 13.0324 93.0149 13.5519 93.2626 13.8117C93.3865 14.2014 93.6342 14.4612 93.8819 14.721C94.1296 14.9807 94.3773 15.2405 94.7489 15.3704C95.1205 15.5003 95.492 15.6302 95.8636 15.6302C96.2352 15.6302 96.7306 15.6302 97.1021 15.3704C97.3498 15.2405 97.5976 14.9807 97.8453 14.8509C97.9691 14.721 98.093 14.4612 98.2168 14.2014C98.2168 13.9416 98.4645 13.6818 98.4645 13.422H95.8636V12.253Z" fill="#E9E6E3"/>
<path d="M102.923 8.61603H104.286L107.134 16.6693H105.772L105.029 14.5911H101.932L101.189 16.6693H99.8269L102.676 8.61603H102.923ZM104.781 13.422L104.038 11.084L103.79 10.1747L103.543 11.084L102.799 13.422H105.029H104.781Z" fill="#E9E6E3"/>
<path d="M108.001 8.61604H110.726C111.098 8.61604 111.345 8.61604 111.717 8.74593C111.965 8.74593 112.336 9.00571 112.46 9.2655C112.708 9.52528 112.832 9.78507 112.956 10.0448C113.079 10.3046 113.203 10.6943 113.203 11.084C113.203 11.4737 113.203 11.6036 113.079 11.8633C113.079 12.1231 112.832 12.3829 112.708 12.5128C112.584 12.7726 112.336 12.9025 112.212 13.0324C112.089 13.1623 111.717 13.2922 111.593 13.2922L113.699 16.5395H112.336L110.355 13.422H109.488V16.5395H108.249V8.48615L108.001 8.61604ZM110.726 12.253C110.85 12.253 111.098 12.253 111.222 12.253C111.345 12.253 111.469 12.1231 111.593 11.9932C111.593 11.9932 111.841 11.7334 111.841 11.6036C111.841 11.4737 111.841 11.3438 111.841 11.084C111.841 10.8242 111.841 10.8242 111.841 10.6943C111.841 10.5644 111.717 10.4345 111.593 10.3046C111.593 10.3046 111.345 10.0448 111.222 10.0448C111.098 10.0448 110.85 10.0448 110.726 10.0448H109.24V12.5128H110.726V12.253Z" fill="#E9E6E3"/>
<path d="M117.91 9.78507V11.9932H121.006V13.1623H117.91V15.3704H121.378V16.5395H116.671V8.48615H121.378V9.65517H117.91V9.78507Z" fill="#E9E6E3"/>
<path d="M122.616 8.61603H124.103L127.447 14.4612V12.9025V8.61603H128.685V16.6693H127.447L123.855 10.5644V12.1231V16.6693H122.616V8.61603Z" fill="#E9E6E3"/>
<path d="M365 10.9541C365 10.5645 365 10.1748 365 9.78511C365 8.87587 365 8.09652 364.752 7.18727C364.628 6.27803 364.381 5.49868 364.009 4.71933C363.266 3.16062 362.027 1.8617 360.541 1.08235C359.798 0.692673 359.055 0.432889 358.188 0.302997C357.321 0.173105 356.578 0.0432129 355.711 0.0432129C355.339 0.0432129 354.968 0.0432129 354.596 0.0432129C354.101 0.0432129 353.729 0.0432129 353.234 0.0432129H228.636C228.14 0.0432129 227.769 0.0432129 227.273 0.0432129C226.902 0.0432129 226.53 0.0432129 226.159 0.0432129C225.292 0.0432129 224.549 0.0432129 223.682 0.302997C222.815 0.432889 222.072 0.692673 221.328 1.08235C220.585 1.47203 219.966 1.99159 219.347 2.64105C218.727 3.29051 218.232 3.93997 217.861 4.71933C217.489 5.49868 217.241 6.27803 217.117 7.18727C216.746 8.09652 216.746 9.00576 216.746 9.78511C216.746 10.1748 216.746 10.5645 216.746 10.9541V40.9592C216.746 41.3489 216.746 41.7386 216.746 42.1282C216.746 43.0375 216.746 43.8168 216.994 44.7261C217.117 45.6353 217.365 46.4147 217.737 47.194C218.108 47.9734 218.604 48.6228 219.223 49.2723C219.842 49.9217 220.461 50.4413 221.205 50.831C221.948 51.2207 222.691 51.4805 223.558 51.6103C224.425 51.7402 225.168 51.8701 226.035 51.8701C226.406 51.8701 226.778 51.8701 227.15 51.8701C227.645 51.8701 228.017 51.8701 228.512 51.8701H353.11C353.605 51.8701 353.977 51.8701 354.472 51.8701C354.844 51.8701 355.215 51.8701 355.587 51.8701C356.454 51.8701 357.197 51.8701 358.064 51.6103C358.931 51.4805 359.674 51.2207 360.417 50.831C361.16 50.4413 361.78 49.9217 362.399 49.2723C363.018 48.6228 363.514 47.9734 363.885 47.194C364.257 46.4147 364.505 45.6353 364.628 44.7261C364.752 43.8168 364.876 43.0375 364.876 42.1282C364.876 41.7386 364.876 41.3489 364.876 40.9592C364.876 40.4396 364.876 40.05 364.876 39.5304V12.383C364.876 11.8634 364.876 11.4737 364.876 10.9541H365ZM363.885 39.6603C363.885 40.1798 363.885 40.5695 363.885 41.0891C363.885 41.4788 363.885 41.8684 363.885 42.2581C363.885 43.0375 363.885 43.8168 363.638 44.7261C363.638 45.5054 363.266 46.1549 363.018 46.9342C362.647 47.5837 362.275 48.2332 361.78 48.7527C361.284 49.2723 360.665 49.7919 360.046 50.0516C359.427 50.4413 358.683 50.7011 357.94 50.7011C357.197 50.831 356.454 50.9609 355.587 50.9609C355.215 50.9609 354.844 50.9609 354.472 50.9609H353.11H227.15C226.778 50.9609 226.406 50.9609 226.035 50.9609C225.292 50.9609 224.425 50.9609 223.682 50.7011C222.939 50.7011 222.319 50.3114 221.576 50.0516C220.957 49.662 220.338 49.2723 219.842 48.7527C219.347 48.2332 218.851 47.5837 218.604 46.9342C218.232 46.2848 218.108 45.5054 217.984 44.7261C217.861 43.9467 217.737 43.1674 217.737 42.2581C217.737 41.9983 217.737 41.0891 217.737 41.0891V10.9541C217.737 10.9541 217.737 10.0449 217.737 9.78511C217.737 9.00576 217.737 8.09652 217.984 7.31717C217.984 6.53781 218.356 5.88835 218.604 5.109C218.975 4.45954 219.347 3.81008 219.842 3.29051C220.338 2.77095 220.957 2.25138 221.576 1.99159C222.195 1.60192 222.939 1.47203 223.682 1.34213C224.425 1.21224 225.168 1.08235 226.035 1.08235H227.15H354.472H355.587C356.33 1.08235 357.073 1.08235 357.94 1.34213C358.683 1.34213 359.303 1.73181 360.046 1.99159C361.284 2.64105 362.399 3.81008 363.018 5.109C363.39 5.75846 363.514 6.53781 363.638 7.18727C363.761 7.96663 363.885 8.87587 363.885 9.65522C363.885 10.0449 363.885 10.4346 363.885 10.8243C363.885 11.3438 363.885 11.7335 363.885 12.2531V39.4005V39.6603Z" fill="#E9E6E3"/>
<path d="M247.462 26.4112C247.462 24.203 248.576 22.1248 250.434 20.9557C249.32 19.2671 247.462 18.228 245.48 18.0981C243.375 17.8383 241.393 19.397 240.278 19.397C239.163 19.397 237.553 18.0981 235.819 18.0981C233.466 18.0981 231.361 19.5269 230.246 21.6052C227.893 25.8916 229.627 32.3862 231.98 35.8933C233.095 37.5819 234.457 39.5303 236.191 39.5303C237.925 39.5303 238.544 38.3613 240.65 38.3613C242.755 38.3613 243.251 39.5303 245.109 39.5303C246.966 39.5303 248.081 37.8417 249.196 36.0232C250.063 34.8542 250.682 33.4254 251.054 31.9966C248.824 31.0873 247.462 28.7493 247.462 26.2813V26.4112Z" fill="#E9E6E3"/>
<path d="M243.994 15.89C244.985 14.5911 245.48 13.0323 245.356 11.3438C243.87 11.4736 242.384 12.253 241.393 13.5519C240.402 14.7209 239.907 16.2796 240.03 17.9682C241.641 17.9682 243.003 17.1889 243.994 16.0199V15.89Z" fill="#E9E6E3"/>
<path d="M269.136 35.2441H263.315L261.953 39.6604H259.476L265.049 23.5538H267.65L273.224 39.6604H270.746L269.384 35.2441H269.136ZM263.934 33.2957H268.641L266.412 26.2815L264.058 33.2957H263.934Z" fill="#E9E6E3"/>
<path d="M285.114 33.815C285.114 37.452 283.256 39.79 280.407 39.79C278.921 39.79 277.559 39.0107 276.939 37.7118V43.5569H274.586V27.9699H276.815V29.9182C277.559 28.6193 278.921 27.84 280.407 27.84C283.256 27.84 285.114 30.178 285.114 33.815ZM282.637 33.815C282.637 31.4769 281.522 29.9182 279.664 29.9182C277.806 29.9182 276.692 31.4769 276.692 33.815C276.692 36.1531 277.93 37.7118 279.664 37.7118C281.398 37.7118 282.637 36.1531 282.637 33.815Z" fill="#E9E6E3"/>
<path d="M297.375 33.815C297.375 37.452 295.517 39.79 292.669 39.79C291.182 39.79 289.82 39.0107 289.201 37.7118V43.5569H286.848V27.9699H289.077V29.9182C289.82 28.6193 291.182 27.84 292.669 27.84C295.517 27.84 297.375 30.178 297.375 33.815ZM295.022 33.815C295.022 31.4769 293.907 29.9182 292.049 29.9182C290.192 29.9182 289.077 31.4769 289.077 33.815C289.077 36.1531 290.315 37.7118 292.049 37.7118C293.783 37.7118 295.022 36.1531 295.022 33.815Z" fill="#E9E6E3"/>
<path d="M305.55 35.1141C305.673 36.6728 307.16 37.7119 309.265 37.7119C311.371 37.7119 312.609 36.6728 312.609 35.244C312.609 33.8151 311.742 33.2956 309.761 32.776L307.779 32.2564C304.93 31.4771 303.692 30.1782 303.692 27.97C303.692 25.7618 306.045 23.2939 309.265 23.2939C312.485 23.2939 314.715 25.2423 314.839 27.97H312.485C312.362 26.4113 311.123 25.3722 309.265 25.3722C307.407 25.3722 306.169 26.4113 306.169 27.8401C306.169 29.2689 307.036 29.6586 309.018 30.1782L310.752 30.5678C313.848 31.3472 315.21 32.6461 315.21 34.9842C315.21 37.3222 312.857 39.9201 309.265 39.9201C305.673 39.9201 303.568 38.1016 303.444 35.1141H305.797H305.55Z" fill="#E9E6E3"/>
<path d="M319.917 25.1124V27.8401H322.022V29.7885H319.917V36.2831C319.917 37.3222 320.288 37.7119 321.279 37.7119C321.527 37.7119 321.775 37.7119 322.022 37.7119V39.6603C321.651 39.6603 321.155 39.6603 320.784 39.6603C318.554 39.6603 317.687 38.751 317.687 36.5429V29.7885H316.077V27.8401H317.687V25.1124H320.041H319.917Z" fill="#E9E6E3"/>
<path d="M323.385 33.815C323.385 30.178 325.49 27.84 328.71 27.84C331.931 27.84 334.036 30.178 334.036 33.815C334.036 37.452 331.931 39.79 328.71 39.79C325.49 39.79 323.385 37.452 323.385 33.815ZM331.683 33.815C331.683 31.2172 330.568 29.7883 328.71 29.7883C326.853 29.7883 325.738 31.3471 325.738 33.815C325.738 36.2829 326.853 37.8417 328.71 37.8417C330.568 37.8417 331.683 36.4128 331.683 33.815Z" fill="#E9E6E3"/>
<path d="M335.894 27.8401H338.123V29.7885C338.371 28.4896 339.61 27.5803 340.848 27.7102C341.096 27.7102 341.344 27.7102 341.591 27.7102V29.9184C341.22 29.9184 340.848 29.7885 340.6 29.7885C339.362 29.7885 338.247 30.8276 338.247 32.1265C338.247 32.1265 338.247 32.3863 338.247 32.5162V39.5304H335.894V27.7102V27.8401Z" fill="#E9E6E3"/>
<path d="M352.243 36.1532C351.995 38.2315 349.89 39.7902 347.412 39.7902C344.935 39.7902 342.087 37.4522 342.087 33.8152C342.087 30.1782 344.068 27.7103 347.289 27.7103C350.509 27.7103 352.367 29.9184 352.367 33.5554V34.3348H344.44C344.316 36.1532 345.431 37.712 347.041 37.8418C347.041 37.8418 347.289 37.8418 347.412 37.8418C348.527 37.8418 349.642 37.3223 350.013 36.1532H352.243ZM344.44 32.6462H350.013C350.013 31.0875 348.899 29.7885 347.412 29.6586C347.412 29.6586 347.289 29.6586 347.165 29.6586C345.555 29.6586 344.316 30.9576 344.316 32.6462H344.44Z" fill="#E9E6E3"/>
<path d="M260.59 15.2405C260.59 12.7726 261.829 11.2139 263.935 11.2139C265.421 11.2139 266.783 12.253 267.031 13.9416H265.916C265.668 13.0324 264.925 12.3829 263.935 12.3829C262.572 12.3829 261.829 13.5519 261.829 15.3704C261.829 17.1889 262.696 18.3579 263.935 18.3579C264.802 18.3579 265.668 17.8384 265.916 16.9291H267.031C266.783 18.4878 265.421 19.6568 263.935 19.527C261.829 19.527 260.59 17.9683 260.59 15.5003V15.2405Z" fill="#E9E6E3"/>
<path d="M268.269 16.1498C268.146 14.5911 269.136 13.2921 270.623 13.1622C272.109 13.0324 273.347 14.0715 273.471 15.6302C273.471 15.7601 273.471 16.0199 273.471 16.1498C273.595 17.7085 272.604 19.0074 271.118 19.1373C269.632 19.2672 268.393 18.228 268.269 16.6693C268.269 16.5394 268.269 16.2797 268.269 16.1498ZM272.357 16.1498C272.357 14.8508 271.861 14.2014 270.87 14.2014C269.88 14.2014 269.384 14.9807 269.384 16.1498C269.384 17.3188 269.88 18.228 270.87 18.228C271.861 18.228 272.357 17.4487 272.357 16.1498Z" fill="#E9E6E3"/>
<path d="M274.958 13.2921H276.072V14.2014C276.32 13.5519 277.063 13.1622 277.682 13.1622C278.673 13.1622 279.54 13.8117 279.664 14.9807C279.664 15.1106 279.664 15.2405 279.664 15.3704V19.1373H278.549V15.6302C278.549 14.7209 278.178 14.2014 277.311 14.2014C276.568 14.2014 275.948 14.7209 275.948 15.5003C275.948 15.5003 275.948 15.6302 275.948 15.7601V19.1373H274.834V13.2921H274.958Z" fill="#E9E6E3"/>
<path d="M283.504 13.1622C284.742 13.1622 285.609 13.8117 285.733 14.8508H284.618C284.618 14.4612 284.123 14.2014 283.504 14.2014C282.884 14.2014 282.389 14.4612 282.389 14.9807C282.389 15.5003 282.637 15.5003 283.256 15.7601L284.123 16.0199C285.238 16.2796 285.733 16.7992 285.733 17.5786C285.733 18.3579 284.742 19.397 283.38 19.397C282.017 19.397 281.15 18.7476 281.15 17.7085H282.265C282.513 18.228 283.008 18.4878 283.504 18.4878C284.247 18.4878 284.618 18.228 284.618 17.7085C284.618 17.1889 284.371 17.1889 283.751 17.059L282.761 16.7992C281.646 16.5394 281.15 16.0199 281.15 15.1106C281.15 14.0715 282.017 13.2921 283.256 13.2921L283.504 13.1622Z" fill="#E9E6E3"/>
<path d="M287.219 12.2531L288.458 10.4346H289.696L288.21 12.2531H287.095H287.219ZM287.343 13.2922H288.458V19.1373H287.343V13.2922Z" fill="#E9E6E3"/>
<path d="M290.068 19.6568H291.183C291.183 20.0465 291.802 20.3063 292.545 20.3063C293.288 20.3063 294.031 19.7867 294.031 19.1373V17.9682C293.66 18.6177 293.04 19.0074 292.297 19.0074C290.935 19.0074 289.944 17.8383 289.944 16.1497C289.944 14.4612 290.811 13.1622 292.297 13.1622C293.04 13.1622 293.66 13.5519 294.031 14.2014V13.2921H295.146V19.1373C295.146 20.4362 294.155 21.3454 292.545 21.3454C291.183 21.3454 290.192 20.696 290.192 19.6568H290.068ZM294.031 16.1497C294.031 14.9807 293.412 14.2014 292.545 14.2014C291.678 14.2014 291.059 14.9807 291.059 16.1497C291.059 17.3188 291.554 18.0981 292.545 18.0981C293.536 18.0981 294.031 17.3188 294.031 16.1497Z" fill="#E9E6E3"/>
<path d="M301.586 19.1373H300.472V18.2281C300.224 18.8775 299.481 19.3971 298.738 19.2672C297.747 19.2672 296.88 18.6177 296.756 17.4487C296.756 17.3188 296.756 17.1889 296.756 17.059V13.2922H297.871V16.7993C297.871 17.7085 298.242 18.2281 298.985 18.2281C299.729 18.2281 300.348 17.7085 300.348 17.059C300.348 17.059 300.348 16.9292 300.348 16.7993V13.4221H301.463V19.2672L301.586 19.1373Z" fill="#E9E6E3"/>
<path d="M308.027 17.5786C307.779 18.6177 306.664 19.3971 305.55 19.2672C304.187 19.2672 302.949 18.0982 302.949 16.6694C302.949 16.5395 302.949 16.4096 302.949 16.2797C302.701 14.8509 303.692 13.4221 305.178 13.2922C305.178 13.2922 305.426 13.2922 305.55 13.2922C307.16 13.2922 308.027 14.4612 308.027 16.2797V16.6694H304.063C304.063 17.5786 304.559 18.358 305.426 18.358C305.426 18.358 305.426 18.358 305.55 18.358C306.045 18.358 306.664 18.0982 306.912 17.7085H308.027V17.5786ZM304.187 15.6302H307.036C307.036 14.8509 306.541 14.2014 305.797 14.0715C305.797 14.0715 305.797 14.0715 305.674 14.0715C304.93 14.0715 304.187 14.721 304.187 15.5003V15.6302Z" fill="#E9E6E3"/>
<path d="M309.637 10.954H310.752V19.1372H309.637V10.954Z" fill="#E9E6E3"/>
<path d="M312.238 16.1498C312.114 14.5911 313.105 13.2921 314.591 13.1622C316.077 13.0324 317.316 14.0715 317.44 15.6302C317.44 15.7601 317.44 16.0199 317.44 16.1498C317.564 17.7085 316.573 19.0074 315.087 19.1373C313.6 19.2672 312.362 18.228 312.238 16.6693C312.238 16.5394 312.238 16.2797 312.238 16.1498ZM316.325 16.1498C316.325 14.8508 315.83 14.2014 314.839 14.2014C313.848 14.2014 313.353 14.9807 313.353 16.1498C313.353 17.3188 313.848 18.228 314.839 18.228C315.83 18.228 316.325 17.4487 316.325 16.1498Z" fill="#E9E6E3"/>
<path d="M326.729 17.5786C326.481 18.6177 325.366 19.3971 324.252 19.2672C322.889 19.2672 321.651 18.0982 321.651 16.6694C321.651 16.5395 321.651 16.4096 321.651 16.2797C321.403 14.8509 322.394 13.4221 323.88 13.2922C323.88 13.2922 324.128 13.2922 324.252 13.2922C325.862 13.2922 326.729 14.4612 326.729 16.2797V16.6694H322.765C322.765 17.5786 323.261 18.358 324.128 18.358C324.128 18.358 324.128 18.358 324.252 18.358C324.747 18.358 325.366 18.0982 325.614 17.7085H326.729V17.5786ZM322.889 15.6302H325.738C325.738 14.8509 325.243 14.2014 324.499 14.0715C324.499 14.0715 324.499 14.0715 324.376 14.0715C323.632 14.0715 322.889 14.721 322.889 15.5003V15.6302Z" fill="#E9E6E3"/>
<path d="M328.215 13.2921H329.33V14.2014C329.578 13.5519 330.321 13.1622 330.94 13.1622C331.931 13.1622 332.798 13.8117 332.922 14.9807C332.922 15.1106 332.922 15.2405 332.922 15.3704V19.1373H331.807V15.6302C331.807 14.7209 331.435 14.2014 330.568 14.2014C329.825 14.2014 329.206 14.7209 329.206 15.5003C329.206 15.5003 329.206 15.6302 329.206 15.7601V19.1373H328.091V13.2921H328.215Z" fill="#E9E6E3"/>
<path d="M342.458 17.5786C342.211 18.6177 341.096 19.3971 339.981 19.2672C338.619 19.2672 337.38 18.0982 337.38 16.6694C337.38 16.5395 337.38 16.4096 337.38 16.2797C337.133 14.8509 338.124 13.4221 339.61 13.2922C339.61 13.2922 339.857 13.2922 339.981 13.2922C341.591 13.2922 342.458 14.4612 342.458 16.2797V16.6694H338.495C338.495 17.5786 338.991 18.358 339.857 18.358C339.857 18.358 339.857 18.358 339.981 18.358C340.477 18.358 341.096 18.0982 341.344 17.7085H342.458V17.5786ZM338.619 15.6302H341.468C341.468 14.8509 340.972 14.2014 340.229 14.0715C340.229 14.0715 340.229 14.0715 340.105 14.0715C339.362 14.0715 338.619 14.721 338.619 15.5003V15.6302Z" fill="#E9E6E3"/>
<path d="M344.069 10.954H345.183V19.1372H344.069V10.954Z" fill="#E9E6E3"/>
</svg>
